<svg xmlns="http://www.w3.org/2000/svg" xmlns:xlink="http://www.w3.org/1999/xlink" width="355" height="355" version="1.1" viewBox="0 0 355 355"><title>Group 10</title><defs><rect id="path-4" width="142" height="25" x="41" y="110" rx="12.5"><animate fill="freeze" attributeName="width" dur="3s" from="0" to="142"/></rect><filter id="filter-5" width="122.5%" height="228%" x="-11.3%" y="-32%" filterUnits="objectBoundingBox"><feOffset dx="0" dy="8" in="SourceAlpha" result="shadowOffsetOuter1"/><feGaussianBlur in="shadowOffsetOuter1" result="shadowBlurOuter1" stdDeviation="4"/><feColorMatrix in="shadowBlurOuter1" type="matrix" values="0 0 0 0 0 0 0 0 0 0 0 0 0 0 0 0 0 0 0.0568181818 0"/></filter><rect id="path-2" width="168" height="27" x="42" y="167" rx="13.5"><animate fill="freeze" attributeName="width" dur="5s" from="0" to="168"/></rect><filter id="filter-3" width="119%" height="218.5%" x="-9.5%" y="-29.6%" filterUnits="objectBoundingBox"><feOffset dx="0" dy="8" in="SourceAlpha" result="shadowOffsetOuter1"/><feGaussianBlur in="shadowOffsetOuter1" result="shadowBlurOuter1" stdDeviation="4"/><feColorMatrix in="shadowBlurOuter1" type="matrix" values="0 0 0 0 0 0 0 0 0 0 0 0 0 0 0 0 0 0 0.0568181818 0"/></filter><rect id="path-6" width="105" height="25" x="41" y="226" rx="12.5"><animate fill="freeze" attributeName="width" dur="2s" from="0" to="105"/></rect><filter id="filter-7" width="130.5%" height="228%" x="-15.2%" y="-32%" filterUnits="objectBoundingBox"><feOffset dx="0" dy="8" in="SourceAlpha" result="shadowOffsetOuter1"/><feGaussianBlur in="shadowOffsetOuter1" result="shadowBlurOuter1" stdDeviation="4"/><feColorMatrix in="shadowBlurOuter1" type="matrix" values="0 0 0 0 0 0 0 0 0 0 0 0 0 0 0 0 0 0 0.0568181818 0"/></filter></defs><g id="Page-1" fill="none" fill-rule="evenodd" stroke="none" stroke-width="1"><g id="Group-5-Copy-2" transform="translate(-415.000000, -351.000000)"><g id="Group-10" transform="translate(415.000000, 351.000000)"><g id="Group-9" transform="translate(0.000000, 15.000000)"><path id="Path-Copy-26" fill="#000" fill-opacity=".2" fill-rule="nonzero" d="M237.612214,138.157654 C234.725783,135.28192 230.051254,135.279644 227.164823,138.157654 C224.278392,141.035663 224.278392,145.698831 227.164823,148.57684 C234.93988,156.329214 239.222735,166.601382 239.222735,177.499403 C239.222735,188.397423 234.93988,198.669591 227.164823,206.424696 C224.278392,209.30043 224.278392,213.965873 227.164823,216.841607 C228.608267,218.280384 230.497251,219 232.388518,219 C234.277503,219 236.16877,218.280384 237.612214,216.841607 C248.18012,206.304532 254,192.334147 254,177.499403 C254,162.665114 248.18012,148.694728 237.612214,138.157654 Z" opacity=".754"><animate attributeName="opacity" dur="3s" from="0" repeatCount="indefinite" to="1"/></path><path id="Path-Copy-27" fill="#131514" fill-opacity=".251" fill-rule="nonzero" d="M267.333026,113.158661 C264.51049,110.280446 259.939438,110.280446 257.116902,113.158661 C254.294366,116.039154 254.294366,120.709078 257.116902,123.586837 C285.703837,152.763042 285.703837,200.237641 257.116902,229.413847 C254.294366,232.292061 254.294366,236.96153 257.116902,239.839744 C258.528393,241.280219 260.375562,242 262.224964,242 C264.074365,242 265.921535,241.279763 267.333026,239.837011 C301.555658,204.912576 301.555658,148.084007 267.333026,113.158661 Z" opacity=".754"><animate attributeName="opacity" dur="3s" from="0" repeatCount="indefinite" to="1"/></path><g id="Rectangle-Copy-56"><use fill="#000" fill-opacity=".2" fill-rule="evenodd" xlink:href="#path-4"/></g><g id="Rectangle-Copy-55"><use fill="#000" fill-opacity="1" filter="url(#filter-3)" xlink:href="#path-2"/><use fill="#000" fill-opacity=".2" fill-rule="evenodd" xlink:href="#path-2"/></g><g id="Rectangle-Copy-57"><use fill="#000" fill-opacity="1" filter="url(#filter-7)" xlink:href="#path-6"/><use fill="#000" fill-opacity=".2" xlink:href="#path-6"/></g></g></g></g></g></svg>